<mxfile host="app.diagrams.net" modified="2024-05-07T08:01:11.280Z" agent="Mozilla/5.0 (Windows NT 10.0; Win64; x64) AppleWebKit/537.36 (KHTML, like Gecko) Chrome/124.0.0.0 Safari/537.36" etag="bWs3Gcyif5X4ED89e_Mx" version="24.3.1" type="github">
  <diagram name="Page-1" id="13e1069c-82ec-6db2-03f1-153e76fe0fe0">
    <mxGraphModel dx="1935" dy="2149" grid="1" gridSize="10" guides="1" tooltips="1" connect="1" arrows="1" fold="1" page="1" pageScale="1" pageWidth="1100" pageHeight="850" background="none" math="0" shadow="0">
      <root>
        <mxCell id="0" />
        <mxCell id="1" parent="0" />
        <mxCell id="7baba1c4bc27f4b0-2" value="core/main.c" style="shape=umlLifeline;perimeter=lifelinePerimeter;whiteSpace=wrap;html=1;container=1;collapsible=0;recursiveResize=0;outlineConnect=0;rounded=1;shadow=0;comic=0;labelBackgroundColor=none;strokeWidth=1;fontFamily=Verdana;fontSize=12;align=center;" parent="1" vertex="1">
          <mxGeometry x="271" y="81" width="102" height="2130" as="geometry" />
        </mxCell>
        <mxCell id="7baba1c4bc27f4b0-10" value="" style="html=1;points=[];perimeter=orthogonalPerimeter;rounded=0;shadow=0;comic=0;labelBackgroundColor=none;strokeWidth=1;fontFamily=Verdana;fontSize=12;align=center;" parent="7baba1c4bc27f4b0-2" vertex="1">
          <mxGeometry x="45" y="391" width="10" height="1629" as="geometry" />
        </mxCell>
        <mxCell id="6mQwVuw__EwqTpGxD2V3-46" value="" style="html=1;points=[[0,0,0,0,5],[0,1,0,0,-5],[1,0,0,0,5],[1,1,0,0,-5]];perimeter=orthogonalPerimeter;outlineConnect=0;targetShapes=umlLifeline;portConstraint=eastwest;newEdgeStyle={&quot;curved&quot;:0,&quot;rounded&quot;:0};" vertex="1" parent="7baba1c4bc27f4b0-2">
          <mxGeometry x="50" y="430" width="10" height="40" as="geometry" />
        </mxCell>
        <mxCell id="6mQwVuw__EwqTpGxD2V3-47" value="初始化uart" style="html=1;align=left;spacingLeft=2;endArrow=block;rounded=0;edgeStyle=orthogonalEdgeStyle;curved=0;rounded=0;fontSize=12;startSize=8;endSize=8;" edge="1" target="6mQwVuw__EwqTpGxD2V3-46" parent="7baba1c4bc27f4b0-2">
          <mxGeometry relative="1" as="geometry">
            <mxPoint x="55" y="410" as="sourcePoint" />
            <Array as="points">
              <mxPoint x="85" y="440" />
            </Array>
          </mxGeometry>
        </mxCell>
        <mxCell id="6mQwVuw__EwqTpGxD2V3-48" value="" style="html=1;points=[[0,0,0,0,5],[0,1,0,0,-5],[1,0,0,0,5],[1,1,0,0,-5]];perimeter=orthogonalPerimeter;outlineConnect=0;targetShapes=umlLifeline;portConstraint=eastwest;newEdgeStyle={&quot;curved&quot;:0,&quot;rounded&quot;:0};" vertex="1" parent="7baba1c4bc27f4b0-2">
          <mxGeometry x="50" y="500" width="10" height="900" as="geometry" />
        </mxCell>
        <mxCell id="6mQwVuw__EwqTpGxD2V3-49" value="bldr_pre_process" style="html=1;align=left;spacingLeft=2;endArrow=block;rounded=0;edgeStyle=orthogonalEdgeStyle;curved=0;rounded=0;fontSize=12;startSize=8;endSize=8;" edge="1" target="6mQwVuw__EwqTpGxD2V3-48" parent="7baba1c4bc27f4b0-2">
          <mxGeometry x="-0.0024" relative="1" as="geometry">
            <mxPoint x="55" y="480" as="sourcePoint" />
            <Array as="points">
              <mxPoint x="85" y="510" />
            </Array>
            <mxPoint as="offset" />
          </mxGeometry>
        </mxCell>
        <mxCell id="6mQwVuw__EwqTpGxD2V3-54" value="" style="html=1;points=[[0,0,0,0,5],[0,1,0,0,-5],[1,0,0,0,5],[1,1,0,0,-5]];perimeter=orthogonalPerimeter;outlineConnect=0;targetShapes=umlLifeline;portConstraint=eastwest;newEdgeStyle={&quot;curved&quot;:0,&quot;rounded&quot;:0};" vertex="1" parent="7baba1c4bc27f4b0-2">
          <mxGeometry x="55" y="550" width="10" height="30" as="geometry" />
        </mxCell>
        <mxCell id="6mQwVuw__EwqTpGxD2V3-55" value="platform_pre_init" style="html=1;align=left;spacingLeft=2;endArrow=block;rounded=0;edgeStyle=orthogonalEdgeStyle;curved=0;rounded=0;fontSize=12;startSize=8;endSize=8;exitX=1.108;exitY=0.035;exitDx=0;exitDy=0;exitPerimeter=0;" edge="1" target="6mQwVuw__EwqTpGxD2V3-54" parent="7baba1c4bc27f4b0-2" source="6mQwVuw__EwqTpGxD2V3-48">
          <mxGeometry relative="1" as="geometry">
            <mxPoint x="60" y="520" as="sourcePoint" />
            <Array as="points">
              <mxPoint x="90" y="531" />
              <mxPoint x="90" y="550" />
            </Array>
          </mxGeometry>
        </mxCell>
        <mxCell id="6mQwVuw__EwqTpGxD2V3-56" value="" style="endArrow=open;endFill=1;endSize=12;html=1;rounded=0;fontSize=12;curved=1;" edge="1" parent="7baba1c4bc27f4b0-2" target="7baba1c4bc27f4b0-13">
          <mxGeometry width="160" relative="1" as="geometry">
            <mxPoint x="65" y="565" as="sourcePoint" />
            <mxPoint x="225" y="565" as="targetPoint" />
          </mxGeometry>
        </mxCell>
        <mxCell id="6mQwVuw__EwqTpGxD2V3-57" value="main()" style="text;align=center;fontStyle=1;verticalAlign=middle;spacingLeft=3;spacingRight=3;strokeColor=none;rotatable=0;points=[[0,0.5],[1,0.5]];portConstraint=eastwest;html=1;" vertex="1" parent="7baba1c4bc27f4b0-2">
          <mxGeometry x="50" y="379" width="54" height="26" as="geometry" />
        </mxCell>
        <mxCell id="6mQwVuw__EwqTpGxD2V3-60" value="" style="html=1;points=[[0,0,0,0,5],[0,1,0,0,-5],[1,0,0,0,5],[1,1,0,0,-5]];perimeter=orthogonalPerimeter;outlineConnect=0;targetShapes=umlLifeline;portConstraint=eastwest;newEdgeStyle={&quot;curved&quot;:0,&quot;rounded&quot;:0};" vertex="1" parent="7baba1c4bc27f4b0-2">
          <mxGeometry x="55" y="943" width="10" height="40" as="geometry" />
        </mxCell>
        <mxCell id="6mQwVuw__EwqTpGxD2V3-61" value="platform_init" style="html=1;align=left;spacingLeft=2;endArrow=block;rounded=0;edgeStyle=orthogonalEdgeStyle;curved=0;rounded=0;fontSize=12;startSize=8;endSize=8;" edge="1" target="6mQwVuw__EwqTpGxD2V3-60" parent="7baba1c4bc27f4b0-2">
          <mxGeometry relative="1" as="geometry">
            <mxPoint x="60" y="923" as="sourcePoint" />
            <Array as="points">
              <mxPoint x="90" y="953" />
            </Array>
          </mxGeometry>
        </mxCell>
        <mxCell id="6mQwVuw__EwqTpGxD2V3-136" value="" style="endArrow=open;endFill=1;endSize=12;html=1;rounded=0;fontSize=12;curved=1;" edge="1" parent="7baba1c4bc27f4b0-2" target="6mQwVuw__EwqTpGxD2V3-135">
          <mxGeometry width="160" relative="1" as="geometry">
            <mxPoint x="66" y="1759" as="sourcePoint" />
            <mxPoint x="226" y="1759" as="targetPoint" />
          </mxGeometry>
        </mxCell>
        <mxCell id="6mQwVuw__EwqTpGxD2V3-156" value="" style="endArrow=open;endFill=1;endSize=12;html=1;rounded=0;fontSize=12;curved=1;" edge="1" parent="7baba1c4bc27f4b0-2" target="6mQwVuw__EwqTpGxD2V3-157">
          <mxGeometry width="160" relative="1" as="geometry">
            <mxPoint x="86" y="1500" as="sourcePoint" />
            <mxPoint x="246" y="1500" as="targetPoint" />
          </mxGeometry>
        </mxCell>
        <mxCell id="6mQwVuw__EwqTpGxD2V3-165" value="" style="endArrow=open;endFill=1;endSize=12;html=1;rounded=0;fontSize=12;curved=1;" edge="1" parent="7baba1c4bc27f4b0-2" target="6mQwVuw__EwqTpGxD2V3-164">
          <mxGeometry width="160" relative="1" as="geometry">
            <mxPoint x="66" y="1607" as="sourcePoint" />
            <mxPoint x="226" y="1607" as="targetPoint" />
          </mxGeometry>
        </mxCell>
        <mxCell id="6mQwVuw__EwqTpGxD2V3-188" value="" style="endArrow=open;endFill=1;endSize=12;html=1;rounded=0;fontSize=12;curved=1;" edge="1" parent="7baba1c4bc27f4b0-2" target="6mQwVuw__EwqTpGxD2V3-187">
          <mxGeometry width="160" relative="1" as="geometry">
            <mxPoint x="66" y="1299" as="sourcePoint" />
            <mxPoint x="226" y="1299" as="targetPoint" />
          </mxGeometry>
        </mxCell>
        <mxCell id="7baba1c4bc27f4b0-3" value="platform.c" style="shape=umlLifeline;perimeter=lifelinePerimeter;whiteSpace=wrap;html=1;container=1;collapsible=0;recursiveResize=0;outlineConnect=0;rounded=1;shadow=0;comic=0;labelBackgroundColor=none;strokeWidth=1;fontFamily=Verdana;fontSize=12;align=center;" parent="1" vertex="1">
          <mxGeometry x="430" y="80" width="100" height="2130" as="geometry" />
        </mxCell>
        <mxCell id="7baba1c4bc27f4b0-13" value="" style="html=1;points=[];perimeter=orthogonalPerimeter;rounded=0;shadow=0;comic=0;labelBackgroundColor=none;strokeWidth=1;fontFamily=Verdana;fontSize=12;align=center;" parent="7baba1c4bc27f4b0-3" vertex="1">
          <mxGeometry x="45" y="552" width="10" height="368" as="geometry" />
        </mxCell>
        <mxCell id="6mQwVuw__EwqTpGxD2V3-62" value="" style="html=1;points=[[0,0,0,0,5],[0,1,0,0,-5],[1,0,0,0,5],[1,1,0,0,-5]];perimeter=orthogonalPerimeter;outlineConnect=0;targetShapes=umlLifeline;portConstraint=eastwest;newEdgeStyle={&quot;curved&quot;:0,&quot;rounded&quot;:0};" vertex="1" parent="7baba1c4bc27f4b0-3">
          <mxGeometry x="50" y="579" width="10" height="24" as="geometry" />
        </mxCell>
        <mxCell id="6mQwVuw__EwqTpGxD2V3-63" value="mtk_timer_init" style="html=1;align=left;spacingLeft=2;endArrow=block;rounded=0;edgeStyle=orthogonalEdgeStyle;curved=0;rounded=0;fontSize=12;startSize=8;endSize=8;" edge="1" target="6mQwVuw__EwqTpGxD2V3-62" parent="7baba1c4bc27f4b0-3">
          <mxGeometry relative="1" as="geometry">
            <mxPoint x="55" y="559" as="sourcePoint" />
            <Array as="points">
              <mxPoint x="55" y="573" />
              <mxPoint x="85" y="573" />
              <mxPoint x="85" y="589" />
            </Array>
          </mxGeometry>
        </mxCell>
        <mxCell id="6mQwVuw__EwqTpGxD2V3-135" value="" style="html=1;points=[[0,0,0,0,5],[0,1,0,0,-5],[1,0,0,0,5],[1,1,0,0,-5]];perimeter=orthogonalPerimeter;outlineConnect=0;targetShapes=umlLifeline;portConstraint=eastwest;newEdgeStyle={&quot;curved&quot;:0,&quot;rounded&quot;:0};" vertex="1" parent="7baba1c4bc27f4b0-3">
          <mxGeometry x="45" y="1740" width="10" height="110" as="geometry" />
        </mxCell>
        <mxCell id="7baba1c4bc27f4b0-4" value="partition.c" style="shape=umlLifeline;perimeter=lifelinePerimeter;whiteSpace=wrap;html=1;container=1;collapsible=0;recursiveResize=0;outlineConnect=0;rounded=1;shadow=0;comic=0;labelBackgroundColor=none;strokeWidth=1;fontFamily=Verdana;fontSize=12;align=center;" parent="1" vertex="1">
          <mxGeometry x="592" y="80" width="100" height="2130" as="geometry" />
        </mxCell>
        <mxCell id="6mQwVuw__EwqTpGxD2V3-164" value="" style="html=1;points=[[0,0,0,0,5],[0,1,0,0,-5],[1,0,0,0,5],[1,1,0,0,-5]];perimeter=orthogonalPerimeter;outlineConnect=0;targetShapes=umlLifeline;portConstraint=eastwest;newEdgeStyle={&quot;curved&quot;:0,&quot;rounded&quot;:0};" vertex="1" parent="7baba1c4bc27f4b0-4">
          <mxGeometry x="45" y="1595" width="10" height="155" as="geometry" />
        </mxCell>
        <mxCell id="6mQwVuw__EwqTpGxD2V3-187" value="" style="html=1;points=[[0,0,0,0,5],[0,1,0,0,-5],[1,0,0,0,5],[1,1,0,0,-5]];perimeter=orthogonalPerimeter;outlineConnect=0;targetShapes=umlLifeline;portConstraint=eastwest;newEdgeStyle={&quot;curved&quot;:0,&quot;rounded&quot;:0};" vertex="1" parent="7baba1c4bc27f4b0-4">
          <mxGeometry x="45" y="1290" width="10" height="60" as="geometry" />
        </mxCell>
        <mxCell id="7baba1c4bc27f4b0-5" value="tz_init.c" style="shape=umlLifeline;perimeter=lifelinePerimeter;whiteSpace=wrap;html=1;container=1;collapsible=0;recursiveResize=0;outlineConnect=0;rounded=1;shadow=0;comic=0;labelBackgroundColor=none;strokeWidth=1;fontFamily=Verdana;fontSize=12;align=center;" parent="1" vertex="1">
          <mxGeometry x="760" y="80" width="100" height="2130" as="geometry" />
        </mxCell>
        <mxCell id="6mQwVuw__EwqTpGxD2V3-157" value="" style="html=1;points=[[0,0,0,0,5],[0,1,0,0,-5],[1,0,0,0,5],[1,1,0,0,-5]];perimeter=orthogonalPerimeter;outlineConnect=0;targetShapes=umlLifeline;portConstraint=eastwest;newEdgeStyle={&quot;curved&quot;:0,&quot;rounded&quot;:0};" vertex="1" parent="7baba1c4bc27f4b0-5">
          <mxGeometry x="45" y="1491" width="10" height="80" as="geometry" />
        </mxCell>
        <mxCell id="7baba1c4bc27f4b0-8" value="init.S" style="shape=umlLifeline;perimeter=lifelinePerimeter;whiteSpace=wrap;html=1;container=1;collapsible=0;recursiveResize=0;outlineConnect=0;rounded=1;shadow=0;comic=0;labelBackgroundColor=none;strokeWidth=1;fontFamily=Verdana;fontSize=12;align=center;" parent="1" vertex="1">
          <mxGeometry x="92" y="80" width="108" height="2130" as="geometry" />
        </mxCell>
        <mxCell id="7baba1c4bc27f4b0-9" value="" style="html=1;points=[];perimeter=orthogonalPerimeter;rounded=0;shadow=0;comic=0;labelBackgroundColor=none;strokeWidth=1;fontFamily=Verdana;fontSize=12;align=center;" parent="7baba1c4bc27f4b0-8" vertex="1">
          <mxGeometry x="50" y="100" width="10" height="310" as="geometry" />
        </mxCell>
        <mxCell id="6mQwVuw__EwqTpGxD2V3-3" value="resethandler" style="html=1;align=left;spacingLeft=2;endArrow=block;rounded=0;edgeStyle=orthogonalEdgeStyle;curved=0;rounded=0;fontSize=12;startSize=8;endSize=8;" edge="1" parent="7baba1c4bc27f4b0-8">
          <mxGeometry x="0.0118" relative="1" as="geometry">
            <mxPoint x="55" y="70" as="sourcePoint" />
            <Array as="points">
              <mxPoint x="85" y="100" />
            </Array>
            <mxPoint x="60" y="100" as="targetPoint" />
            <mxPoint as="offset" />
          </mxGeometry>
        </mxCell>
        <mxCell id="6mQwVuw__EwqTpGxD2V3-4" value="" style="html=1;points=[[0,0,0,0,5],[0,1,0,0,-5],[1,0,0,0,5],[1,1,0,0,-5]];perimeter=orthogonalPerimeter;outlineConnect=0;targetShapes=umlLifeline;portConstraint=eastwest;newEdgeStyle={&quot;curved&quot;:0,&quot;rounded&quot;:0};" vertex="1" parent="7baba1c4bc27f4b0-8">
          <mxGeometry x="55" y="130" width="10" height="40" as="geometry" />
        </mxCell>
        <mxCell id="6mQwVuw__EwqTpGxD2V3-5" value="切换cpu到SVC32模式" style="html=1;align=left;spacingLeft=2;endArrow=block;rounded=0;edgeStyle=orthogonalEdgeStyle;curved=0;rounded=0;fontSize=12;startSize=8;endSize=8;" edge="1" target="6mQwVuw__EwqTpGxD2V3-4" parent="7baba1c4bc27f4b0-8">
          <mxGeometry relative="1" as="geometry">
            <mxPoint x="60" y="110" as="sourcePoint" />
            <Array as="points">
              <mxPoint x="90" y="140" />
            </Array>
          </mxGeometry>
        </mxCell>
        <mxCell id="6mQwVuw__EwqTpGxD2V3-6" value="" style="html=1;points=[[0,0,0,0,5],[0,1,0,0,-5],[1,0,0,0,5],[1,1,0,0,-5]];perimeter=orthogonalPerimeter;outlineConnect=0;targetShapes=umlLifeline;portConstraint=eastwest;newEdgeStyle={&quot;curved&quot;:0,&quot;rounded&quot;:0};" vertex="1" parent="7baba1c4bc27f4b0-8">
          <mxGeometry x="55" y="205" width="10" height="40" as="geometry" />
        </mxCell>
        <mxCell id="6mQwVuw__EwqTpGxD2V3-7" value="关闭fiq/irq" style="html=1;align=left;spacingLeft=2;endArrow=block;rounded=0;edgeStyle=orthogonalEdgeStyle;curved=0;rounded=0;fontSize=12;startSize=8;endSize=8;" edge="1" target="6mQwVuw__EwqTpGxD2V3-6" parent="7baba1c4bc27f4b0-8">
          <mxGeometry relative="1" as="geometry">
            <mxPoint x="60" y="185" as="sourcePoint" />
            <Array as="points">
              <mxPoint x="90" y="215" />
            </Array>
          </mxGeometry>
        </mxCell>
        <mxCell id="6mQwVuw__EwqTpGxD2V3-8" value="" style="html=1;points=[[0,0,0,0,5],[0,1,0,0,-5],[1,0,0,0,5],[1,1,0,0,-5]];perimeter=orthogonalPerimeter;outlineConnect=0;targetShapes=umlLifeline;portConstraint=eastwest;newEdgeStyle={&quot;curved&quot;:0,&quot;rounded&quot;:0};" vertex="1" parent="7baba1c4bc27f4b0-8">
          <mxGeometry x="55" y="280" width="10" height="40" as="geometry" />
        </mxCell>
        <mxCell id="6mQwVuw__EwqTpGxD2V3-9" value="找到bss段起始地址" style="html=1;align=left;spacingLeft=2;endArrow=block;rounded=0;edgeStyle=orthogonalEdgeStyle;curved=0;rounded=0;fontSize=12;startSize=8;endSize=8;" edge="1" target="6mQwVuw__EwqTpGxD2V3-8" parent="7baba1c4bc27f4b0-8">
          <mxGeometry relative="1" as="geometry">
            <mxPoint x="60" y="260" as="sourcePoint" />
            <Array as="points">
              <mxPoint x="90" y="290" />
            </Array>
          </mxGeometry>
        </mxCell>
        <mxCell id="6mQwVuw__EwqTpGxD2V3-15" value="" style="shape=note2;size=25;childLayout=stackLayout;horizontalStack=0;resizeParent=1;resizeParentMax=0;resizeLast=0;collapsible=0;marginBottom=0;html=1;container=1;" vertex="1" parent="7baba1c4bc27f4b0-8">
          <mxGeometry x="95" y="280" width="100" height="40" as="geometry" />
        </mxCell>
        <mxCell id="6mQwVuw__EwqTpGxD2V3-17" value="bss：代码段" style="text;html=1;strokeColor=none;fillColor=none;align=left;verticalAlign=middle;spacingLeft=4;spacingRight=4;overflow=hidden;rotatable=0;points=[[0,0.5],[1,0.5]];portConstraint=eastwest;whiteSpace=wrap;" vertex="1" parent="6mQwVuw__EwqTpGxD2V3-15">
          <mxGeometry width="100" height="40" as="geometry" />
        </mxCell>
        <mxCell id="6mQwVuw__EwqTpGxD2V3-24" value="" style="html=1;points=[[0,0,0,0,5],[0,1,0,0,-5],[1,0,0,0,5],[1,1,0,0,-5]];perimeter=orthogonalPerimeter;outlineConnect=0;targetShapes=umlLifeline;portConstraint=eastwest;newEdgeStyle={&quot;curved&quot;:0,&quot;rounded&quot;:0};" vertex="1" parent="7baba1c4bc27f4b0-8">
          <mxGeometry x="55" y="350" width="10" height="40" as="geometry" />
        </mxCell>
        <mxCell id="6mQwVuw__EwqTpGxD2V3-25" value="设置stack" style="html=1;align=left;spacingLeft=2;endArrow=block;rounded=0;edgeStyle=orthogonalEdgeStyle;curved=0;rounded=0;fontSize=12;startSize=8;endSize=8;" edge="1" target="6mQwVuw__EwqTpGxD2V3-24" parent="7baba1c4bc27f4b0-8">
          <mxGeometry x="0.0118" relative="1" as="geometry">
            <mxPoint x="60" y="330" as="sourcePoint" />
            <Array as="points">
              <mxPoint x="90" y="360" />
            </Array>
            <mxPoint as="offset" />
          </mxGeometry>
        </mxCell>
        <mxCell id="6mQwVuw__EwqTpGxD2V3-30" value="" style="endArrow=open;endFill=1;endSize=12;html=1;rounded=0;fontSize=12;curved=1;" edge="1" parent="7baba1c4bc27f4b0-8">
          <mxGeometry width="160" relative="1" as="geometry">
            <mxPoint x="60" y="401" as="sourcePoint" />
            <mxPoint x="223" y="400" as="targetPoint" />
          </mxGeometry>
        </mxCell>
        <mxCell id="6mQwVuw__EwqTpGxD2V3-42" value="" style="shape=note2;size=25;childLayout=stackLayout;horizontalStack=0;resizeParent=1;resizeParentMax=0;resizeLast=0;collapsible=0;marginBottom=0;html=1;container=1;" vertex="1" parent="1">
          <mxGeometry x="170" y="487" width="120" height="40" as="geometry" />
        </mxCell>
        <mxCell id="6mQwVuw__EwqTpGxD2V3-43" value="跳转到C代码&lt;span style=&quot;background-color: initial;&quot;&gt;的&lt;/span&gt;&lt;div&gt;&lt;span style=&quot;background-color: initial;&quot;&gt;main&lt;/span&gt;&lt;span style=&quot;background-color: initial;&quot;&gt;入口&lt;/span&gt;&lt;/div&gt;" style="text;html=1;strokeColor=none;fillColor=none;align=left;verticalAlign=middle;spacingLeft=4;spacingRight=4;overflow=hidden;rotatable=0;points=[[0,0.5],[1,0.5]];portConstraint=eastwest;whiteSpace=wrap;" vertex="1" parent="6mQwVuw__EwqTpGxD2V3-42">
          <mxGeometry width="120" height="40" as="geometry" />
        </mxCell>
        <mxCell id="6mQwVuw__EwqTpGxD2V3-52" value="" style="shape=note2;size=25;childLayout=stackLayout;horizontalStack=0;resizeParent=1;resizeParentMax=0;resizeLast=0;collapsible=0;marginBottom=0;html=1;container=1;" vertex="1" parent="1">
          <mxGeometry x="486" y="580" width="140" height="40" as="geometry" />
        </mxCell>
        <mxCell id="6mQwVuw__EwqTpGxD2V3-53" value="基本硬件的&lt;span style=&quot;background-color: initial;&quot;&gt;初始化&lt;/span&gt;" style="text;html=1;strokeColor=none;fillColor=none;align=left;verticalAlign=middle;spacingLeft=4;spacingRight=4;overflow=hidden;rotatable=0;points=[[0,0.5],[1,0.5]];portConstraint=eastwest;whiteSpace=wrap;" vertex="1" parent="6mQwVuw__EwqTpGxD2V3-52">
          <mxGeometry width="140" height="40" as="geometry" />
        </mxCell>
        <mxCell id="6mQwVuw__EwqTpGxD2V3-59" value="platform_pre_init()" style="text;align=center;fontStyle=1;verticalAlign=middle;spacingLeft=3;spacingRight=3;strokeColor=none;rotatable=0;points=[[0,0.5],[1,0.5]];portConstraint=eastwest;html=1;" vertex="1" parent="1">
          <mxGeometry x="500" y="620" width="80" height="26" as="geometry" />
        </mxCell>
        <mxCell id="6mQwVuw__EwqTpGxD2V3-66" value="" style="html=1;points=[[0,0,0,0,5],[0,1,0,0,-5],[1,0,0,0,5],[1,1,0,0,-5]];perimeter=orthogonalPerimeter;outlineConnect=0;targetShapes=umlLifeline;portConstraint=eastwest;newEdgeStyle={&quot;curved&quot;:0,&quot;rounded&quot;:0};" vertex="1" parent="1">
          <mxGeometry x="480" y="698" width="10" height="24" as="geometry" />
        </mxCell>
        <mxCell id="6mQwVuw__EwqTpGxD2V3-67" value="mt_pll_init" style="html=1;align=left;spacingLeft=2;endArrow=block;rounded=0;edgeStyle=orthogonalEdgeStyle;curved=0;rounded=0;fontSize=12;startSize=8;endSize=8;" edge="1" parent="1" target="6mQwVuw__EwqTpGxD2V3-66">
          <mxGeometry relative="1" as="geometry">
            <mxPoint x="500" y="692" as="sourcePoint" />
            <Array as="points">
              <mxPoint x="485" y="692" />
              <mxPoint x="515" y="692" />
              <mxPoint x="515" y="708" />
            </Array>
          </mxGeometry>
        </mxCell>
        <mxCell id="6mQwVuw__EwqTpGxD2V3-68" value="" style="html=1;points=[[0,0,0,0,5],[0,1,0,0,-5],[1,0,0,0,5],[1,1,0,0,-5]];perimeter=orthogonalPerimeter;outlineConnect=0;targetShapes=umlLifeline;portConstraint=eastwest;newEdgeStyle={&quot;curved&quot;:0,&quot;rounded&quot;:0};" vertex="1" parent="1">
          <mxGeometry x="480" y="737" width="10" height="24" as="geometry" />
        </mxCell>
        <mxCell id="6mQwVuw__EwqTpGxD2V3-69" value="mt_gpio_init" style="html=1;align=left;spacingLeft=2;endArrow=block;rounded=0;edgeStyle=orthogonalEdgeStyle;curved=0;rounded=0;fontSize=12;startSize=8;endSize=8;" edge="1" parent="1" target="6mQwVuw__EwqTpGxD2V3-68">
          <mxGeometry x="0.0038" relative="1" as="geometry">
            <mxPoint x="500" y="731" as="sourcePoint" />
            <Array as="points">
              <mxPoint x="485" y="731" />
              <mxPoint x="515" y="731" />
              <mxPoint x="515" y="747" />
            </Array>
            <mxPoint as="offset" />
          </mxGeometry>
        </mxCell>
        <mxCell id="6mQwVuw__EwqTpGxD2V3-70" value="" style="html=1;points=[[0,0,0,0,5],[0,1,0,0,-5],[1,0,0,0,5],[1,1,0,0,-5]];perimeter=orthogonalPerimeter;outlineConnect=0;targetShapes=umlLifeline;portConstraint=eastwest;newEdgeStyle={&quot;curved&quot;:0,&quot;rounded&quot;:0};" vertex="1" parent="1">
          <mxGeometry x="480" y="776" width="10" height="24" as="geometry" />
        </mxCell>
        <mxCell id="6mQwVuw__EwqTpGxD2V3-71" value="pmif_spmi_init" style="html=1;align=left;spacingLeft=2;endArrow=block;rounded=0;edgeStyle=orthogonalEdgeStyle;curved=0;rounded=0;fontSize=12;startSize=8;endSize=8;" edge="1" parent="1" target="6mQwVuw__EwqTpGxD2V3-70">
          <mxGeometry x="0.0038" relative="1" as="geometry">
            <mxPoint x="500" y="770" as="sourcePoint" />
            <Array as="points">
              <mxPoint x="485" y="770" />
              <mxPoint x="515" y="770" />
              <mxPoint x="515" y="786" />
            </Array>
            <mxPoint as="offset" />
          </mxGeometry>
        </mxCell>
        <mxCell id="6mQwVuw__EwqTpGxD2V3-72" value="" style="html=1;points=[[0,0,0,0,5],[0,1,0,0,-5],[1,0,0,0,5],[1,1,0,0,-5]];perimeter=orthogonalPerimeter;outlineConnect=0;targetShapes=umlLifeline;portConstraint=eastwest;newEdgeStyle={&quot;curved&quot;:0,&quot;rounded&quot;:0};" vertex="1" parent="1">
          <mxGeometry x="480" y="814" width="10" height="24" as="geometry" />
        </mxCell>
        <mxCell id="6mQwVuw__EwqTpGxD2V3-73" value="logstore_pmic_init" style="html=1;align=left;spacingLeft=2;endArrow=block;rounded=0;edgeStyle=orthogonalEdgeStyle;curved=0;rounded=0;fontSize=12;startSize=8;endSize=8;" edge="1" parent="1" target="6mQwVuw__EwqTpGxD2V3-72">
          <mxGeometry x="0.0038" relative="1" as="geometry">
            <mxPoint x="500" y="808" as="sourcePoint" />
            <Array as="points">
              <mxPoint x="485" y="808" />
              <mxPoint x="515" y="808" />
              <mxPoint x="515" y="824" />
            </Array>
            <mxPoint as="offset" />
          </mxGeometry>
        </mxCell>
        <mxCell id="6mQwVuw__EwqTpGxD2V3-74" value="" style="html=1;points=[[0,0,0,0,5],[0,1,0,0,-5],[1,0,0,0,5],[1,1,0,0,-5]];perimeter=orthogonalPerimeter;outlineConnect=0;targetShapes=umlLifeline;portConstraint=eastwest;newEdgeStyle={&quot;curved&quot;:0,&quot;rounded&quot;:0};" vertex="1" parent="1">
          <mxGeometry x="480" y="853" width="10" height="24" as="geometry" />
        </mxCell>
        <mxCell id="6mQwVuw__EwqTpGxD2V3-75" value="tia_init" style="html=1;align=left;spacingLeft=2;endArrow=block;rounded=0;edgeStyle=orthogonalEdgeStyle;curved=0;rounded=0;fontSize=12;startSize=8;endSize=8;" edge="1" parent="1" target="6mQwVuw__EwqTpGxD2V3-74">
          <mxGeometry x="0.0038" relative="1" as="geometry">
            <mxPoint x="500" y="847" as="sourcePoint" />
            <Array as="points">
              <mxPoint x="485" y="847" />
              <mxPoint x="515" y="847" />
              <mxPoint x="515" y="863" />
            </Array>
            <mxPoint as="offset" />
          </mxGeometry>
        </mxCell>
        <mxCell id="6mQwVuw__EwqTpGxD2V3-77" value="" style="html=1;points=[[0,0,0,0,5],[0,1,0,0,-5],[1,0,0,0,5],[1,1,0,0,-5]];perimeter=orthogonalPerimeter;outlineConnect=0;targetShapes=umlLifeline;portConstraint=eastwest;newEdgeStyle={&quot;curved&quot;:0,&quot;rounded&quot;:0};" vertex="1" parent="1">
          <mxGeometry x="480" y="892" width="10" height="24" as="geometry" />
        </mxCell>
        <mxCell id="6mQwVuw__EwqTpGxD2V3-78" value="i2c_hw_init" style="html=1;align=left;spacingLeft=2;endArrow=block;rounded=0;edgeStyle=orthogonalEdgeStyle;curved=0;rounded=0;fontSize=12;startSize=8;endSize=8;" edge="1" parent="1" target="6mQwVuw__EwqTpGxD2V3-77">
          <mxGeometry x="0.0038" relative="1" as="geometry">
            <mxPoint x="500" y="886" as="sourcePoint" />
            <Array as="points">
              <mxPoint x="485" y="886" />
              <mxPoint x="515" y="886" />
              <mxPoint x="515" y="902" />
            </Array>
            <mxPoint as="offset" />
          </mxGeometry>
        </mxCell>
        <mxCell id="6mQwVuw__EwqTpGxD2V3-79" value="" style="html=1;points=[[0,0,0,0,5],[0,1,0,0,-5],[1,0,0,0,5],[1,1,0,0,-5]];perimeter=orthogonalPerimeter;outlineConnect=0;targetShapes=umlLifeline;portConstraint=eastwest;newEdgeStyle={&quot;curved&quot;:0,&quot;rounded&quot;:0};" vertex="1" parent="1">
          <mxGeometry x="480" y="931" width="10" height="24" as="geometry" />
        </mxCell>
        <mxCell id="6mQwVuw__EwqTpGxD2V3-80" value="pmic_init" style="html=1;align=left;spacingLeft=2;endArrow=block;rounded=0;edgeStyle=orthogonalEdgeStyle;curved=0;rounded=0;fontSize=12;startSize=8;endSize=8;" edge="1" parent="1" target="6mQwVuw__EwqTpGxD2V3-79">
          <mxGeometry x="0.0038" relative="1" as="geometry">
            <mxPoint x="500" y="925" as="sourcePoint" />
            <Array as="points">
              <mxPoint x="485" y="925" />
              <mxPoint x="515" y="925" />
              <mxPoint x="515" y="941" />
            </Array>
            <mxPoint as="offset" />
          </mxGeometry>
        </mxCell>
        <mxCell id="6mQwVuw__EwqTpGxD2V3-81" value="" style="html=1;points=[[0,0,0,0,5],[0,1,0,0,-5],[1,0,0,0,5],[1,1,0,0,-5]];perimeter=orthogonalPerimeter;outlineConnect=0;targetShapes=umlLifeline;portConstraint=eastwest;newEdgeStyle={&quot;curved&quot;:0,&quot;rounded&quot;:0};" vertex="1" parent="1">
          <mxGeometry x="480" y="969" width="10" height="24" as="geometry" />
        </mxCell>
        <mxCell id="6mQwVuw__EwqTpGxD2V3-82" value="mtk_wdt_init" style="html=1;align=left;spacingLeft=2;endArrow=block;rounded=0;edgeStyle=orthogonalEdgeStyle;curved=0;rounded=0;fontSize=12;startSize=8;endSize=8;" edge="1" parent="1" target="6mQwVuw__EwqTpGxD2V3-81">
          <mxGeometry x="0.0038" relative="1" as="geometry">
            <mxPoint x="500" y="963" as="sourcePoint" />
            <Array as="points">
              <mxPoint x="485" y="963" />
              <mxPoint x="515" y="963" />
              <mxPoint x="515" y="979" />
            </Array>
            <mxPoint as="offset" />
          </mxGeometry>
        </mxCell>
        <mxCell id="6mQwVuw__EwqTpGxD2V3-83" value="" style="html=1;points=[];perimeter=orthogonalPerimeter;rounded=0;shadow=0;comic=0;labelBackgroundColor=none;strokeWidth=1;fontFamily=Verdana;fontSize=12;align=center;" vertex="1" parent="1">
          <mxGeometry x="475" y="1030" width="10" height="290" as="geometry" />
        </mxCell>
        <mxCell id="6mQwVuw__EwqTpGxD2V3-84" value="" style="endArrow=open;endFill=1;endSize=12;html=1;rounded=0;fontSize=12;curved=1;" edge="1" parent="1">
          <mxGeometry width="160" relative="1" as="geometry">
            <mxPoint x="337" y="1046" as="sourcePoint" />
            <mxPoint x="476" y="1046" as="targetPoint" />
          </mxGeometry>
        </mxCell>
        <mxCell id="6mQwVuw__EwqTpGxD2V3-85" value="platform_init()" style="text;align=center;fontStyle=1;verticalAlign=middle;spacingLeft=3;spacingRight=3;strokeColor=none;rotatable=0;points=[[0,0.5],[1,0.5]];portConstraint=eastwest;html=1;" vertex="1" parent="1">
          <mxGeometry x="488" y="1017" width="80" height="26" as="geometry" />
        </mxCell>
        <mxCell id="6mQwVuw__EwqTpGxD2V3-86" value="" style="html=1;points=[[0,0,0,0,5],[0,1,0,0,-5],[1,0,0,0,5],[1,1,0,0,-5]];perimeter=orthogonalPerimeter;outlineConnect=0;targetShapes=umlLifeline;portConstraint=eastwest;newEdgeStyle={&quot;curved&quot;:0,&quot;rounded&quot;:0};" vertex="1" parent="1">
          <mxGeometry x="480" y="1060" width="10" height="24" as="geometry" />
        </mxCell>
        <mxCell id="6mQwVuw__EwqTpGxD2V3-87" value="lastpc_init" style="html=1;align=left;spacingLeft=2;endArrow=block;rounded=0;edgeStyle=orthogonalEdgeStyle;curved=0;rounded=0;fontSize=12;startSize=8;endSize=8;" edge="1" parent="1" target="6mQwVuw__EwqTpGxD2V3-86">
          <mxGeometry x="0.0038" relative="1" as="geometry">
            <mxPoint x="500" y="1054" as="sourcePoint" />
            <Array as="points">
              <mxPoint x="485" y="1054" />
              <mxPoint x="515" y="1054" />
              <mxPoint x="515" y="1070" />
            </Array>
            <mxPoint as="offset" />
          </mxGeometry>
        </mxCell>
        <mxCell id="6mQwVuw__EwqTpGxD2V3-88" value="" style="html=1;points=[[0,0,0,0,5],[0,1,0,0,-5],[1,0,0,0,5],[1,1,0,0,-5]];perimeter=orthogonalPerimeter;outlineConnect=0;targetShapes=umlLifeline;portConstraint=eastwest;newEdgeStyle={&quot;curved&quot;:0,&quot;rounded&quot;:0};" vertex="1" parent="1">
          <mxGeometry x="480" y="1099" width="10" height="24" as="geometry" />
        </mxCell>
        <mxCell id="6mQwVuw__EwqTpGxD2V3-89" value="mtk_drm_init" style="html=1;align=left;spacingLeft=2;endArrow=block;rounded=0;edgeStyle=orthogonalEdgeStyle;curved=0;rounded=0;fontSize=12;startSize=8;endSize=8;" edge="1" parent="1" target="6mQwVuw__EwqTpGxD2V3-88">
          <mxGeometry x="0.0038" relative="1" as="geometry">
            <mxPoint x="500" y="1093" as="sourcePoint" />
            <Array as="points">
              <mxPoint x="485" y="1093" />
              <mxPoint x="515" y="1093" />
              <mxPoint x="515" y="1109" />
            </Array>
            <mxPoint as="offset" />
          </mxGeometry>
        </mxCell>
        <mxCell id="6mQwVuw__EwqTpGxD2V3-90" value="" style="html=1;points=[[0,0,0,0,5],[0,1,0,0,-5],[1,0,0,0,5],[1,1,0,0,-5]];perimeter=orthogonalPerimeter;outlineConnect=0;targetShapes=umlLifeline;portConstraint=eastwest;newEdgeStyle={&quot;curved&quot;:0,&quot;rounded&quot;:0};" vertex="1" parent="1">
          <mxGeometry x="480" y="1139" width="10" height="24" as="geometry" />
        </mxCell>
        <mxCell id="6mQwVuw__EwqTpGxD2V3-91" value="mt_mem_init" style="html=1;align=left;spacingLeft=2;endArrow=block;rounded=0;edgeStyle=orthogonalEdgeStyle;curved=0;rounded=0;fontSize=12;startSize=8;endSize=8;" edge="1" parent="1" target="6mQwVuw__EwqTpGxD2V3-90">
          <mxGeometry x="0.0038" relative="1" as="geometry">
            <mxPoint x="500" y="1133" as="sourcePoint" />
            <Array as="points">
              <mxPoint x="485" y="1133" />
              <mxPoint x="515" y="1133" />
              <mxPoint x="515" y="1149" />
            </Array>
            <mxPoint as="offset" />
          </mxGeometry>
        </mxCell>
        <mxCell id="6mQwVuw__EwqTpGxD2V3-92" value="" style="html=1;points=[[0,0,0,0,5],[0,1,0,0,-5],[1,0,0,0,5],[1,1,0,0,-5]];perimeter=orthogonalPerimeter;outlineConnect=0;targetShapes=umlLifeline;portConstraint=eastwest;newEdgeStyle={&quot;curved&quot;:0,&quot;rounded&quot;:0};" vertex="1" parent="1">
          <mxGeometry x="480" y="1179" width="10" height="24" as="geometry" />
        </mxCell>
        <mxCell id="6mQwVuw__EwqTpGxD2V3-93" value="init_dram_buffer" style="html=1;align=left;spacingLeft=2;endArrow=block;rounded=0;edgeStyle=orthogonalEdgeStyle;curved=0;rounded=0;fontSize=12;startSize=8;endSize=8;" edge="1" parent="1" target="6mQwVuw__EwqTpGxD2V3-92">
          <mxGeometry x="0.0038" relative="1" as="geometry">
            <mxPoint x="500" y="1173" as="sourcePoint" />
            <Array as="points">
              <mxPoint x="485" y="1173" />
              <mxPoint x="515" y="1173" />
              <mxPoint x="515" y="1189" />
            </Array>
            <mxPoint as="offset" />
          </mxGeometry>
        </mxCell>
        <mxCell id="6mQwVuw__EwqTpGxD2V3-94" value="" style="html=1;points=[[0,0,0,0,5],[0,1,0,0,-5],[1,0,0,0,5],[1,1,0,0,-5]];perimeter=orthogonalPerimeter;outlineConnect=0;targetShapes=umlLifeline;portConstraint=eastwest;newEdgeStyle={&quot;curved&quot;:0,&quot;rounded&quot;:0};" vertex="1" parent="1">
          <mxGeometry x="480" y="1229" width="10" height="24" as="geometry" />
        </mxCell>
        <mxCell id="6mQwVuw__EwqTpGxD2V3-95" value="boot_device_init" style="html=1;align=left;spacingLeft=2;endArrow=block;rounded=0;edgeStyle=orthogonalEdgeStyle;curved=0;rounded=0;fontSize=12;startSize=8;endSize=8;" edge="1" parent="1" target="6mQwVuw__EwqTpGxD2V3-94">
          <mxGeometry x="0.0038" relative="1" as="geometry">
            <mxPoint x="500" y="1223" as="sourcePoint" />
            <Array as="points">
              <mxPoint x="485" y="1223" />
              <mxPoint x="515" y="1223" />
              <mxPoint x="515" y="1239" />
            </Array>
            <mxPoint as="offset" />
          </mxGeometry>
        </mxCell>
        <mxCell id="6mQwVuw__EwqTpGxD2V3-98" value="" style="shape=note2;size=25;childLayout=stackLayout;horizontalStack=0;resizeParent=1;resizeParentMax=0;resizeLast=0;collapsible=0;marginBottom=0;html=1;container=1;" vertex="1" parent="1">
          <mxGeometry x="649" y="1220" width="200" height="40" as="geometry" />
        </mxCell>
        <mxCell id="6mQwVuw__EwqTpGxD2V3-99" value="初始化引导存储设备，根据&lt;div&gt;实现选择ufs、emmc或者nand&lt;/div&gt;" style="text;html=1;strokeColor=none;fillColor=none;align=left;verticalAlign=middle;spacingLeft=4;spacingRight=4;overflow=hidden;rotatable=0;points=[[0,0.5],[1,0.5]];portConstraint=eastwest;whiteSpace=wrap;" vertex="1" parent="6mQwVuw__EwqTpGxD2V3-98">
          <mxGeometry width="200" height="40" as="geometry" />
        </mxCell>
        <mxCell id="6mQwVuw__EwqTpGxD2V3-104" value="" style="endArrow=none;dashed=1;html=1;dashPattern=1 3;strokeWidth=2;rounded=0;fontSize=12;startSize=8;endSize=8;curved=1;entryX=-0.013;entryY=0.715;entryDx=0;entryDy=0;entryPerimeter=0;" edge="1" parent="1" target="6mQwVuw__EwqTpGxD2V3-106">
          <mxGeometry width="50" height="50" relative="1" as="geometry">
            <mxPoint x="491" y="1198" as="sourcePoint" />
            <mxPoint x="656" y="1187" as="targetPoint" />
          </mxGeometry>
        </mxCell>
        <mxCell id="6mQwVuw__EwqTpGxD2V3-105" value="" style="shape=note2;size=25;childLayout=stackLayout;horizontalStack=0;resizeParent=1;resizeParentMax=0;resizeLast=0;collapsible=0;marginBottom=0;html=1;container=1;" vertex="1" parent="1">
          <mxGeometry x="650" y="1169" width="200" height="40" as="geometry" />
        </mxCell>
        <mxCell id="6mQwVuw__EwqTpGxD2V3-106" value="pre-loader运行在ISRAM中，而&lt;div&gt;DRAM是在这里初始化完成的&lt;/div&gt;" style="text;html=1;strokeColor=none;fillColor=none;align=left;verticalAlign=middle;spacingLeft=4;spacingRight=4;overflow=hidden;rotatable=0;points=[[0,0.5],[1,0.5]];portConstraint=eastwest;whiteSpace=wrap;" vertex="1" parent="6mQwVuw__EwqTpGxD2V3-105">
          <mxGeometry width="200" height="40" as="geometry" />
        </mxCell>
        <mxCell id="6mQwVuw__EwqTpGxD2V3-100" value="" style="endArrow=none;dashed=1;html=1;dashPattern=1 3;strokeWidth=2;rounded=0;fontSize=12;startSize=8;endSize=8;curved=1;entryX=-0.013;entryY=0.715;entryDx=0;entryDy=0;entryPerimeter=0;" edge="1" parent="1" source="6mQwVuw__EwqTpGxD2V3-94" target="6mQwVuw__EwqTpGxD2V3-99">
          <mxGeometry width="50" height="50" relative="1" as="geometry">
            <mxPoint x="490" y="1239" as="sourcePoint" />
            <mxPoint x="655" y="1228" as="targetPoint" />
          </mxGeometry>
        </mxCell>
        <mxCell id="6mQwVuw__EwqTpGxD2V3-107" value="" style="html=1;points=[[0,0,0,0,5],[0,1,0,0,-5],[1,0,0,0,5],[1,1,0,0,-5]];perimeter=orthogonalPerimeter;outlineConnect=0;targetShapes=umlLifeline;portConstraint=eastwest;newEdgeStyle={&quot;curved&quot;:0,&quot;rounded&quot;:0};" vertex="1" parent="1">
          <mxGeometry x="480" y="1283" width="10" height="24" as="geometry" />
        </mxCell>
        <mxCell id="6mQwVuw__EwqTpGxD2V3-108" value="mtk_detect_dl_keys" style="html=1;align=left;spacingLeft=2;endArrow=block;rounded=0;edgeStyle=orthogonalEdgeStyle;curved=0;rounded=0;fontSize=12;startSize=8;endSize=8;" edge="1" parent="1" target="6mQwVuw__EwqTpGxD2V3-107">
          <mxGeometry x="0.0038" relative="1" as="geometry">
            <mxPoint x="500" y="1277" as="sourcePoint" />
            <Array as="points">
              <mxPoint x="485" y="1277" />
              <mxPoint x="515" y="1277" />
              <mxPoint x="515" y="1293" />
            </Array>
            <mxPoint as="offset" />
          </mxGeometry>
        </mxCell>
        <mxCell id="6mQwVuw__EwqTpGxD2V3-111" value="" style="endArrow=none;dashed=1;html=1;dashPattern=1 3;strokeWidth=2;rounded=0;fontSize=12;startSize=8;endSize=8;curved=1;entryX=-0.013;entryY=0.715;entryDx=0;entryDy=0;entryPerimeter=0;" edge="1" parent="1" target="6mQwVuw__EwqTpGxD2V3-113">
          <mxGeometry width="50" height="50" relative="1" as="geometry">
            <mxPoint x="490" y="1304" as="sourcePoint" />
            <mxPoint x="655" y="1293" as="targetPoint" />
          </mxGeometry>
        </mxCell>
        <mxCell id="6mQwVuw__EwqTpGxD2V3-112" value="" style="shape=note2;size=25;childLayout=stackLayout;horizontalStack=0;resizeParent=1;resizeParentMax=0;resizeLast=0;collapsible=0;marginBottom=0;html=1;container=1;" vertex="1" parent="1">
          <mxGeometry x="671" y="1275" width="110" height="40" as="geometry" />
        </mxCell>
        <mxCell id="6mQwVuw__EwqTpGxD2V3-113" value="检测烧机按键" style="text;html=1;strokeColor=none;fillColor=none;align=left;verticalAlign=middle;spacingLeft=4;spacingRight=4;overflow=hidden;rotatable=0;points=[[0,0.5],[1,0.5]];portConstraint=eastwest;whiteSpace=wrap;" vertex="1" parent="6mQwVuw__EwqTpGxD2V3-112">
          <mxGeometry width="110" height="40" as="geometry" />
        </mxCell>
        <mxCell id="6mQwVuw__EwqTpGxD2V3-114" value="" style="html=1;points=[[0,0,0,0,5],[0,1,0,0,-5],[1,0,0,0,5],[1,1,0,0,-5]];perimeter=orthogonalPerimeter;outlineConnect=0;targetShapes=umlLifeline;portConstraint=eastwest;newEdgeStyle={&quot;curved&quot;:0,&quot;rounded&quot;:0};" vertex="1" parent="1">
          <mxGeometry x="327" y="1357" width="10" height="33" as="geometry" />
        </mxCell>
        <mxCell id="6mQwVuw__EwqTpGxD2V3-115" value="part_init" style="html=1;align=left;spacingLeft=2;endArrow=block;rounded=0;edgeStyle=orthogonalEdgeStyle;curved=0;rounded=0;fontSize=12;startSize=8;endSize=8;" edge="1" parent="1" target="6mQwVuw__EwqTpGxD2V3-114">
          <mxGeometry relative="1" as="geometry">
            <mxPoint x="331" y="1340" as="sourcePoint" />
            <Array as="points">
              <mxPoint x="362" y="1367" />
            </Array>
          </mxGeometry>
        </mxCell>
        <mxCell id="6mQwVuw__EwqTpGxD2V3-116" value="" style="html=1;points=[[0,0,0,0,5],[0,1,0,0,-5],[1,0,0,0,5],[1,1,0,0,-5]];perimeter=orthogonalPerimeter;outlineConnect=0;targetShapes=umlLifeline;portConstraint=eastwest;newEdgeStyle={&quot;curved&quot;:0,&quot;rounded&quot;:0};" vertex="1" parent="1">
          <mxGeometry x="327" y="1433" width="10" height="33" as="geometry" />
        </mxCell>
        <mxCell id="6mQwVuw__EwqTpGxD2V3-117" value="store_switch_to_dram" style="html=1;align=left;spacingLeft=2;endArrow=block;rounded=0;edgeStyle=orthogonalEdgeStyle;curved=0;rounded=0;fontSize=12;startSize=8;endSize=8;" edge="1" parent="1" target="6mQwVuw__EwqTpGxD2V3-116">
          <mxGeometry relative="1" as="geometry">
            <mxPoint x="331" y="1416" as="sourcePoint" />
            <Array as="points">
              <mxPoint x="362" y="1443" />
            </Array>
          </mxGeometry>
        </mxCell>
        <mxCell id="6mQwVuw__EwqTpGxD2V3-118" value="" style="html=1;points=[[0,0,0,0,5],[0,1,0,0,-5],[1,0,0,0,5],[1,1,0,0,-5]];perimeter=orthogonalPerimeter;outlineConnect=0;targetShapes=umlLifeline;portConstraint=eastwest;newEdgeStyle={&quot;curved&quot;:0,&quot;rounded&quot;:0};" vertex="1" parent="1">
          <mxGeometry x="322" y="1512" width="10" height="33" as="geometry" />
        </mxCell>
        <mxCell id="6mQwVuw__EwqTpGxD2V3-119" value="bldr_handshark" style="html=1;align=left;spacingLeft=2;endArrow=block;rounded=0;edgeStyle=orthogonalEdgeStyle;curved=0;rounded=0;fontSize=12;startSize=8;endSize=8;" edge="1" parent="1" target="6mQwVuw__EwqTpGxD2V3-118">
          <mxGeometry relative="1" as="geometry">
            <mxPoint x="326" y="1495" as="sourcePoint" />
            <Array as="points">
              <mxPoint x="357" y="1522" />
            </Array>
          </mxGeometry>
        </mxCell>
        <mxCell id="6mQwVuw__EwqTpGxD2V3-120" value="" style="html=1;points=[[0,0,0,0,5],[0,1,0,0,-5],[1,0,0,0,5],[1,1,0,0,-5]];perimeter=orthogonalPerimeter;outlineConnect=0;targetShapes=umlLifeline;portConstraint=eastwest;newEdgeStyle={&quot;curved&quot;:0,&quot;rounded&quot;:0};" vertex="1" parent="1">
          <mxGeometry x="322" y="1575" width="10" height="33" as="geometry" />
        </mxCell>
        <mxCell id="6mQwVuw__EwqTpGxD2V3-121" value="trustzone_pre_init" style="html=1;align=left;spacingLeft=2;endArrow=block;rounded=0;edgeStyle=orthogonalEdgeStyle;curved=0;rounded=0;fontSize=12;startSize=8;endSize=8;" edge="1" parent="1" target="6mQwVuw__EwqTpGxD2V3-120">
          <mxGeometry relative="1" as="geometry">
            <mxPoint x="326" y="1558" as="sourcePoint" />
            <Array as="points">
              <mxPoint x="357" y="1585" />
            </Array>
          </mxGeometry>
        </mxCell>
        <mxCell id="6mQwVuw__EwqTpGxD2V3-122" value="" style="html=1;points=[[0,0,0,0,5],[0,1,0,0,-5],[1,0,0,0,5],[1,1,0,0,-5]];perimeter=orthogonalPerimeter;outlineConnect=0;targetShapes=umlLifeline;portConstraint=eastwest;newEdgeStyle={&quot;curved&quot;:0,&quot;rounded&quot;:0};" vertex="1" parent="1">
          <mxGeometry x="322" y="1638" width="10" height="62" as="geometry" />
        </mxCell>
        <mxCell id="6mQwVuw__EwqTpGxD2V3-123" value="bldr_load_images&lt;span style=&quot;color: rgba(0, 0, 0, 0); font-family: monospace; font-size: 0px; background-color: rgb(251, 251, 251);&quot;&gt;%3CmxGraphModel%3E%3Croot%3E%3CmxCell%20id%3D%220%22%2F%3E%3CmxCell%20id%3D%221%22%20parent%3D%220%22%2F%3E%3CmxCell%20id%3D%222%22%20value%3D%22%22%20style%3D%22html%3D1%3Bpoints%3D%5B%5B0%2C0%2C0%2C0%2C5%5D%2C%5B0%2C1%2C0%2C0%2C-5%5D%2C%5B1%2C0%2C0%2C0%2C5%5D%2C%5B1%2C1%2C0%2C0%2C-5%5D%5D%3Bperimeter%3DorthogonalPerimeter%3BoutlineConnect%3D0%3BtargetShapes%3DumlLifeline%3BportConstraint%3Deastwest%3BnewEdgeStyle%3D%7B%26quot%3Bcurved%26quot%3B%3A0%2C%26quot%3Brounded%26quot%3B%3A0%7D%3B%22%20vertex%3D%221%22%20parent%3D%221%22%3E%3CmxGeometry%20x%3D%22322%22%20y%3D%221512%22%20width%3D%2210%22%20height%3D%2233%22%20as%3D%22geometry%22%2F%3E%3C%2FmxCell%3E%3CmxCell%20id%3D%223%22%20value%3D%22bldr_handshark%22%20style%3D%22html%3D1%3Balign%3Dleft%3BspacingLeft%3D2%3BendArrow%3Dblock%3Brounded%3D0%3BedgeStyle%3DorthogonalEdgeStyle%3Bcurved%3D0%3Brounded%3D0%3BfontSize%3D12%3BstartSize%3D8%3BendSize%3D8%3B%22%20edge%3D%221%22%20target%3D%222%22%20parent%3D%221%22%3E%3CmxGeometry%20relative%3D%221%22%20as%3D%22geometry%22%3E%3CmxPoint%20x%3D%22326%22%20y%3D%221495%22%20as%3D%22sourcePoint%22%2F%3E%3CArray%20as%3D%22points%22%3E%3CmxPoint%20x%3D%22357%22%20y%3D%221522%22%2F%3E%3C%2FArray%3E%3C%2FmxGeometry%3E%3C%2FmxCell%3E%3C%2Froot%3E%3C%2FmxGraphModel%3E&lt;/span&gt;" style="html=1;align=left;spacingLeft=2;endArrow=block;rounded=0;edgeStyle=orthogonalEdgeStyle;curved=0;rounded=0;fontSize=12;startSize=8;endSize=8;" edge="1" parent="1" target="6mQwVuw__EwqTpGxD2V3-122">
          <mxGeometry relative="1" as="geometry">
            <mxPoint x="326" y="1621" as="sourcePoint" />
            <Array as="points">
              <mxPoint x="357" y="1648" />
            </Array>
          </mxGeometry>
        </mxCell>
        <mxCell id="6mQwVuw__EwqTpGxD2V3-124" value="" style="html=1;points=[[0,0,0,0,5],[0,1,0,0,-5],[1,0,0,0,5],[1,1,0,0,-5]];perimeter=orthogonalPerimeter;outlineConnect=0;targetShapes=umlLifeline;portConstraint=eastwest;newEdgeStyle={&quot;curved&quot;:0,&quot;rounded&quot;:0};" vertex="1" parent="1">
          <mxGeometry x="322" y="1787" width="10" height="66" as="geometry" />
        </mxCell>
        <mxCell id="6mQwVuw__EwqTpGxD2V3-125" value="bldr_post_process" style="html=1;align=left;spacingLeft=2;endArrow=block;rounded=0;edgeStyle=orthogonalEdgeStyle;curved=0;rounded=0;fontSize=12;startSize=8;endSize=8;" edge="1" parent="1" target="6mQwVuw__EwqTpGxD2V3-124">
          <mxGeometry relative="1" as="geometry">
            <mxPoint x="326" y="1770" as="sourcePoint" />
            <Array as="points">
              <mxPoint x="357" y="1797" />
            </Array>
          </mxGeometry>
        </mxCell>
        <mxCell id="6mQwVuw__EwqTpGxD2V3-126" value="" style="html=1;points=[[0,0,0,0,5],[0,1,0,0,-5],[1,0,0,0,5],[1,1,0,0,-5]];perimeter=orthogonalPerimeter;outlineConnect=0;targetShapes=umlLifeline;portConstraint=eastwest;newEdgeStyle={&quot;curved&quot;:0,&quot;rounded&quot;:0};" vertex="1" parent="1">
          <mxGeometry x="322" y="1973" width="10" height="33" as="geometry" />
        </mxCell>
        <mxCell id="6mQwVuw__EwqTpGxD2V3-127" value="bldr_jump" style="html=1;align=left;spacingLeft=2;endArrow=block;rounded=0;edgeStyle=orthogonalEdgeStyle;curved=0;rounded=0;fontSize=12;startSize=8;endSize=8;" edge="1" parent="1" target="6mQwVuw__EwqTpGxD2V3-126">
          <mxGeometry relative="1" as="geometry">
            <mxPoint x="326" y="1956" as="sourcePoint" />
            <Array as="points">
              <mxPoint x="357" y="1983" />
            </Array>
          </mxGeometry>
        </mxCell>
        <mxCell id="6mQwVuw__EwqTpGxD2V3-128" value="" style="html=1;points=[[0,0,0,0,5],[0,1,0,0,-5],[1,0,0,0,5],[1,1,0,0,-5]];perimeter=orthogonalPerimeter;outlineConnect=0;targetShapes=umlLifeline;portConstraint=eastwest;newEdgeStyle={&quot;curved&quot;:0,&quot;rounded&quot;:0};" vertex="1" parent="1">
          <mxGeometry x="322" y="2041" width="10" height="33" as="geometry" />
        </mxCell>
        <mxCell id="6mQwVuw__EwqTpGxD2V3-129" value="platform_error_handler" style="html=1;align=left;spacingLeft=2;endArrow=block;rounded=0;edgeStyle=orthogonalEdgeStyle;curved=0;rounded=0;fontSize=12;startSize=8;endSize=8;" edge="1" parent="1" target="6mQwVuw__EwqTpGxD2V3-128">
          <mxGeometry relative="1" as="geometry">
            <mxPoint x="326" y="2024" as="sourcePoint" />
            <Array as="points">
              <mxPoint x="357" y="2051" />
            </Array>
          </mxGeometry>
        </mxCell>
        <mxCell id="6mQwVuw__EwqTpGxD2V3-131" value="" style="html=1;points=[[0,0,0,0,5],[0,1,0,0,-5],[1,0,0,0,5],[1,1,0,0,-5]];perimeter=orthogonalPerimeter;outlineConnect=0;targetShapes=umlLifeline;portConstraint=eastwest;newEdgeStyle={&quot;curved&quot;:0,&quot;rounded&quot;:0};" vertex="1" parent="1">
          <mxGeometry x="327" y="1667" width="10" height="24" as="geometry" />
        </mxCell>
        <mxCell id="6mQwVuw__EwqTpGxD2V3-132" value="bldr_load_part_lk" style="html=1;align=left;spacingLeft=2;endArrow=block;rounded=0;edgeStyle=orthogonalEdgeStyle;curved=0;rounded=0;fontSize=12;startSize=8;endSize=8;" edge="1" parent="1" target="6mQwVuw__EwqTpGxD2V3-131">
          <mxGeometry x="0.0038" relative="1" as="geometry">
            <mxPoint x="347" y="1661" as="sourcePoint" />
            <Array as="points">
              <mxPoint x="332" y="1661" />
              <mxPoint x="362" y="1661" />
              <mxPoint x="362" y="1677" />
            </Array>
            <mxPoint as="offset" />
          </mxGeometry>
        </mxCell>
        <mxCell id="6mQwVuw__EwqTpGxD2V3-133" value="" style="html=1;points=[[0,0,0,0,5],[0,1,0,0,-5],[1,0,0,0,5],[1,1,0,0,-5]];perimeter=orthogonalPerimeter;outlineConnect=0;targetShapes=umlLifeline;portConstraint=eastwest;newEdgeStyle={&quot;curved&quot;:0,&quot;rounded&quot;:0};" vertex="1" parent="1">
          <mxGeometry x="327" y="1816" width="10" height="27" as="geometry" />
        </mxCell>
        <mxCell id="6mQwVuw__EwqTpGxD2V3-134" value="platform_post_init" style="html=1;align=left;spacingLeft=2;endArrow=block;rounded=0;edgeStyle=orthogonalEdgeStyle;curved=0;rounded=0;fontSize=12;startSize=8;endSize=8;" edge="1" parent="1" target="6mQwVuw__EwqTpGxD2V3-133">
          <mxGeometry x="0.0038" relative="1" as="geometry">
            <mxPoint x="347" y="1810" as="sourcePoint" />
            <Array as="points">
              <mxPoint x="332" y="1810" />
              <mxPoint x="362" y="1810" />
              <mxPoint x="362" y="1826" />
            </Array>
            <mxPoint as="offset" />
          </mxGeometry>
        </mxCell>
        <mxCell id="6mQwVuw__EwqTpGxD2V3-138" value="platform_post_init" style="text;align=center;fontStyle=1;verticalAlign=middle;spacingLeft=3;spacingRight=3;strokeColor=none;rotatable=0;points=[[0,0.5],[1,0.5]];portConstraint=eastwest;html=1;" vertex="1" parent="1">
          <mxGeometry x="499" y="1811" width="80" height="26" as="geometry" />
        </mxCell>
        <mxCell id="6mQwVuw__EwqTpGxD2V3-139" value="" style="html=1;points=[[0,0,0,0,5],[0,1,0,0,-5],[1,0,0,0,5],[1,1,0,0,-5]];perimeter=orthogonalPerimeter;outlineConnect=0;targetShapes=umlLifeline;portConstraint=eastwest;newEdgeStyle={&quot;curved&quot;:0,&quot;rounded&quot;:0};" vertex="1" parent="1">
          <mxGeometry x="481" y="1848" width="10" height="27" as="geometry" />
        </mxCell>
        <mxCell id="6mQwVuw__EwqTpGxD2V3-140" value="hw_check_battery" style="html=1;align=left;spacingLeft=2;endArrow=block;rounded=0;edgeStyle=orthogonalEdgeStyle;curved=0;rounded=0;fontSize=12;startSize=8;endSize=8;" edge="1" parent="1" target="6mQwVuw__EwqTpGxD2V3-139">
          <mxGeometry x="0.0038" relative="1" as="geometry">
            <mxPoint x="501" y="1842" as="sourcePoint" />
            <Array as="points">
              <mxPoint x="486" y="1842" />
              <mxPoint x="516" y="1842" />
              <mxPoint x="516" y="1858" />
            </Array>
            <mxPoint as="offset" />
          </mxGeometry>
        </mxCell>
        <mxCell id="6mQwVuw__EwqTpGxD2V3-141" value="" style="html=1;points=[[0,0,0,0,5],[0,1,0,0,-5],[1,0,0,0,5],[1,1,0,0,-5]];perimeter=orthogonalPerimeter;outlineConnect=0;targetShapes=umlLifeline;portConstraint=eastwest;newEdgeStyle={&quot;curved&quot;:0,&quot;rounded&quot;:0};" vertex="1" parent="1">
          <mxGeometry x="481" y="1895" width="10" height="27" as="geometry" />
        </mxCell>
        <mxCell id="6mQwVuw__EwqTpGxD2V3-142" value="platform_set_boot_args" style="html=1;align=left;spacingLeft=2;endArrow=block;rounded=0;edgeStyle=orthogonalEdgeStyle;curved=0;rounded=0;fontSize=12;startSize=8;endSize=8;" edge="1" parent="1" target="6mQwVuw__EwqTpGxD2V3-141">
          <mxGeometry x="0.0038" relative="1" as="geometry">
            <mxPoint x="501" y="1889" as="sourcePoint" />
            <Array as="points">
              <mxPoint x="486" y="1889" />
              <mxPoint x="516" y="1889" />
              <mxPoint x="516" y="1905" />
            </Array>
            <mxPoint as="offset" />
          </mxGeometry>
        </mxCell>
        <mxCell id="6mQwVuw__EwqTpGxD2V3-143" value="" style="endArrow=none;dashed=1;html=1;dashPattern=1 3;strokeWidth=2;rounded=0;fontSize=12;startSize=8;endSize=8;curved=1;entryX=-0.013;entryY=0.715;entryDx=0;entryDy=0;entryPerimeter=0;" edge="1" parent="1" target="6mQwVuw__EwqTpGxD2V3-145">
          <mxGeometry width="50" height="50" relative="1" as="geometry">
            <mxPoint x="491" y="1918" as="sourcePoint" />
            <mxPoint x="656" y="1907" as="targetPoint" />
          </mxGeometry>
        </mxCell>
        <mxCell id="6mQwVuw__EwqTpGxD2V3-144" value="" style="shape=note2;size=25;childLayout=stackLayout;horizontalStack=0;resizeParent=1;resizeParentMax=0;resizeLast=0;collapsible=0;marginBottom=0;html=1;container=1;" vertex="1" parent="1">
          <mxGeometry x="650" y="1889" width="190" height="40" as="geometry" />
        </mxCell>
        <mxCell id="6mQwVuw__EwqTpGxD2V3-145" value="解析需要传入&lt;span style=&quot;background-color: initial;&quot;&gt;lk的启动参数&lt;/span&gt;" style="text;html=1;strokeColor=none;fillColor=none;align=left;verticalAlign=middle;spacingLeft=4;spacingRight=4;overflow=hidden;rotatable=0;points=[[0,0.5],[1,0.5]];portConstraint=eastwest;whiteSpace=wrap;" vertex="1" parent="6mQwVuw__EwqTpGxD2V3-144">
          <mxGeometry width="190" height="40" as="geometry" />
        </mxCell>
        <mxCell id="6mQwVuw__EwqTpGxD2V3-150" value="" style="endArrow=none;dashed=1;html=1;dashPattern=1 3;strokeWidth=2;rounded=0;fontSize=12;startSize=8;endSize=8;curved=1;entryX=-0.013;entryY=0.715;entryDx=0;entryDy=0;entryPerimeter=0;" edge="1" parent="1" target="6mQwVuw__EwqTpGxD2V3-152">
          <mxGeometry width="50" height="50" relative="1" as="geometry">
            <mxPoint x="491" y="1870" as="sourcePoint" />
            <mxPoint x="656" y="1859" as="targetPoint" />
          </mxGeometry>
        </mxCell>
        <mxCell id="6mQwVuw__EwqTpGxD2V3-151" value="" style="shape=note2;size=25;childLayout=stackLayout;horizontalStack=0;resizeParent=1;resizeParentMax=0;resizeLast=0;collapsible=0;marginBottom=0;html=1;container=1;" vertex="1" parent="1">
          <mxGeometry x="650" y="1841" width="190" height="40" as="geometry" />
        </mxCell>
        <mxCell id="6mQwVuw__EwqTpGxD2V3-152" value="电池检测，没检测&lt;span style=&quot;background-color: initial;&quot;&gt;到电池就&lt;/span&gt;&lt;div&gt;&lt;span style=&quot;background-color: initial;&quot;&gt;进入while(1)&lt;/span&gt;&lt;/div&gt;" style="text;html=1;strokeColor=none;fillColor=none;align=left;verticalAlign=middle;spacingLeft=4;spacingRight=4;overflow=hidden;rotatable=0;points=[[0,0.5],[1,0.5]];portConstraint=eastwest;whiteSpace=wrap;" vertex="1" parent="6mQwVuw__EwqTpGxD2V3-151">
          <mxGeometry width="190" height="40" as="geometry" />
        </mxCell>
        <mxCell id="6mQwVuw__EwqTpGxD2V3-158" value="trust_pre_init" style="text;align=center;fontStyle=1;verticalAlign=middle;spacingLeft=3;spacingRight=3;strokeColor=none;rotatable=0;points=[[0,0.5],[1,0.5]];portConstraint=eastwest;html=1;" vertex="1" parent="1">
          <mxGeometry x="816" y="1561" width="80" height="26" as="geometry" />
        </mxCell>
        <mxCell id="6mQwVuw__EwqTpGxD2V3-159" value="" style="html=1;points=[[0,0,0,0,5],[0,1,0,0,-5],[1,0,0,0,5],[1,1,0,0,-5]];perimeter=orthogonalPerimeter;outlineConnect=0;targetShapes=umlLifeline;portConstraint=eastwest;newEdgeStyle={&quot;curved&quot;:0,&quot;rounded&quot;:0};" vertex="1" parent="1">
          <mxGeometry x="811" y="1608" width="10" height="32" as="geometry" />
        </mxCell>
        <mxCell id="6mQwVuw__EwqTpGxD2V3-160" value="trustzone_get_atf_boot_param_addr" style="html=1;align=left;spacingLeft=2;endArrow=block;rounded=0;edgeStyle=orthogonalEdgeStyle;curved=0;rounded=0;fontSize=12;startSize=8;endSize=8;" edge="1" parent="1" target="6mQwVuw__EwqTpGxD2V3-159">
          <mxGeometry x="0.0038" relative="1" as="geometry">
            <mxPoint x="831" y="1602" as="sourcePoint" />
            <Array as="points">
              <mxPoint x="816" y="1602" />
              <mxPoint x="846" y="1602" />
              <mxPoint x="846" y="1618" />
            </Array>
            <mxPoint as="offset" />
          </mxGeometry>
        </mxCell>
        <mxCell id="6mQwVuw__EwqTpGxD2V3-161" value="" style="shape=note2;size=25;childLayout=stackLayout;horizontalStack=0;resizeParent=1;resizeParentMax=0;resizeLast=0;collapsible=0;marginBottom=0;html=1;container=1;" vertex="1" parent="1">
          <mxGeometry x="1052" y="1603" width="240" height="40" as="geometry" />
        </mxCell>
        <mxCell id="6mQwVuw__EwqTpGxD2V3-162" value="如果平台EL3已实现，那么进入EL3(atf)&lt;div&gt;初始化，使用特有的系统调用进行交互&lt;/div&gt;" style="text;html=1;strokeColor=none;fillColor=none;align=left;verticalAlign=middle;spacingLeft=4;spacingRight=4;overflow=hidden;rotatable=0;points=[[0,0.5],[1,0.5]];portConstraint=eastwest;whiteSpace=wrap;" vertex="1" parent="6mQwVuw__EwqTpGxD2V3-161">
          <mxGeometry width="240" height="40" as="geometry" />
        </mxCell>
        <mxCell id="6mQwVuw__EwqTpGxD2V3-163" value="" style="endArrow=none;dashed=1;html=1;dashPattern=1 3;strokeWidth=2;rounded=0;fontSize=12;startSize=8;endSize=8;curved=1;entryX=-0.013;entryY=0.715;entryDx=0;entryDy=0;entryPerimeter=0;" edge="1" parent="1" target="6mQwVuw__EwqTpGxD2V3-162" source="6mQwVuw__EwqTpGxD2V3-159">
          <mxGeometry width="50" height="50" relative="1" as="geometry">
            <mxPoint x="846" y="1632" as="sourcePoint" />
            <mxPoint x="1011" y="1611" as="targetPoint" />
          </mxGeometry>
        </mxCell>
        <mxCell id="6mQwVuw__EwqTpGxD2V3-166" value="" style="html=1;points=[[0,0,0,0,5],[0,1,0,0,-5],[1,0,0,0,5],[1,1,0,0,-5]];perimeter=orthogonalPerimeter;outlineConnect=0;targetShapes=umlLifeline;portConstraint=eastwest;newEdgeStyle={&quot;curved&quot;:0,&quot;rounded&quot;:0};" vertex="1" parent="1">
          <mxGeometry x="642" y="1698" width="10" height="122" as="geometry" />
        </mxCell>
        <mxCell id="6mQwVuw__EwqTpGxD2V3-167" value="part_load" style="html=1;align=left;spacingLeft=2;endArrow=block;rounded=0;edgeStyle=orthogonalEdgeStyle;curved=0;rounded=0;fontSize=12;startSize=8;endSize=8;" edge="1" parent="1" target="6mQwVuw__EwqTpGxD2V3-166" source="6mQwVuw__EwqTpGxD2V3-164">
          <mxGeometry x="0.0038" relative="1" as="geometry">
            <mxPoint x="662" y="1692" as="sourcePoint" />
            <Array as="points">
              <mxPoint x="682" y="1692" />
              <mxPoint x="682" y="1705" />
            </Array>
            <mxPoint as="offset" />
          </mxGeometry>
        </mxCell>
        <mxCell id="6mQwVuw__EwqTpGxD2V3-168" value="" style="html=1;points=[[0,0,0,0,5],[0,1,0,0,-5],[1,0,0,0,5],[1,1,0,0,-5]];perimeter=orthogonalPerimeter;outlineConnect=0;targetShapes=umlLifeline;portConstraint=eastwest;newEdgeStyle={&quot;curved&quot;:0,&quot;rounded&quot;:0};" vertex="1" parent="1">
          <mxGeometry x="647" y="1725" width="10" height="21" as="geometry" />
        </mxCell>
        <mxCell id="6mQwVuw__EwqTpGxD2V3-169" value="blkdev_read" style="html=1;align=left;spacingLeft=2;endArrow=block;rounded=0;edgeStyle=orthogonalEdgeStyle;curved=0;rounded=0;fontSize=12;startSize=8;endSize=8;" edge="1" target="6mQwVuw__EwqTpGxD2V3-168" parent="1">
          <mxGeometry relative="1" as="geometry">
            <mxPoint x="652" y="1716" as="sourcePoint" />
            <Array as="points">
              <mxPoint x="677" y="1716" />
              <mxPoint x="677" y="1735" />
            </Array>
          </mxGeometry>
        </mxCell>
        <mxCell id="6mQwVuw__EwqTpGxD2V3-170" value="" style="html=1;points=[[0,0,0,0,5],[0,1,0,0,-5],[1,0,0,0,5],[1,1,0,0,-5]];perimeter=orthogonalPerimeter;outlineConnect=0;targetShapes=umlLifeline;portConstraint=eastwest;newEdgeStyle={&quot;curved&quot;:0,&quot;rounded&quot;:0};" vertex="1" parent="1">
          <mxGeometry x="647" y="1760" width="10" height="21" as="geometry" />
        </mxCell>
        <mxCell id="6mQwVuw__EwqTpGxD2V3-171" value="get_part_info" style="html=1;align=left;spacingLeft=2;endArrow=block;rounded=0;edgeStyle=orthogonalEdgeStyle;curved=0;rounded=0;fontSize=12;startSize=8;endSize=8;" edge="1" parent="1" target="6mQwVuw__EwqTpGxD2V3-170">
          <mxGeometry x="-0.0102" relative="1" as="geometry">
            <mxPoint x="652" y="1751" as="sourcePoint" />
            <Array as="points">
              <mxPoint x="677" y="1751" />
              <mxPoint x="677" y="1770" />
            </Array>
            <mxPoint as="offset" />
          </mxGeometry>
        </mxCell>
        <mxCell id="6mQwVuw__EwqTpGxD2V3-172" value="" style="html=1;points=[[0,0,0,0,5],[0,1,0,0,-5],[1,0,0,0,5],[1,1,0,0,-5]];perimeter=orthogonalPerimeter;outlineConnect=0;targetShapes=umlLifeline;portConstraint=eastwest;newEdgeStyle={&quot;curved&quot;:0,&quot;rounded&quot;:0};" vertex="1" parent="1">
          <mxGeometry x="647" y="1795" width="10" height="21" as="geometry" />
        </mxCell>
        <mxCell id="6mQwVuw__EwqTpGxD2V3-173" value="tee_get_load_addr" style="html=1;align=left;spacingLeft=2;endArrow=block;rounded=0;edgeStyle=orthogonalEdgeStyle;curved=0;rounded=0;fontSize=12;startSize=8;endSize=8;" edge="1" parent="1" target="6mQwVuw__EwqTpGxD2V3-172">
          <mxGeometry x="-0.0092" relative="1" as="geometry">
            <mxPoint x="652" y="1786" as="sourcePoint" />
            <Array as="points">
              <mxPoint x="677" y="1786" />
              <mxPoint x="677" y="1805" />
            </Array>
            <mxPoint as="offset" />
          </mxGeometry>
        </mxCell>
        <mxCell id="6mQwVuw__EwqTpGxD2V3-174" value="bldr_load_part_lk" style="text;align=center;fontStyle=1;verticalAlign=middle;spacingLeft=3;spacingRight=3;strokeColor=none;rotatable=0;points=[[0,0.5],[1,0.5]];portConstraint=eastwest;html=1;" vertex="1" parent="1">
          <mxGeometry x="659" y="1667" width="80" height="26" as="geometry" />
        </mxCell>
        <mxCell id="6mQwVuw__EwqTpGxD2V3-175" value="" style="endArrow=none;dashed=1;html=1;dashPattern=1 3;strokeWidth=2;rounded=0;fontSize=12;startSize=8;endSize=8;curved=1;entryX=-0.013;entryY=0.715;entryDx=0;entryDy=0;entryPerimeter=0;" edge="1" parent="1" target="6mQwVuw__EwqTpGxD2V3-177">
          <mxGeometry width="50" height="50" relative="1" as="geometry">
            <mxPoint x="657" y="1812" as="sourcePoint" />
            <mxPoint x="822" y="1801" as="targetPoint" />
          </mxGeometry>
        </mxCell>
        <mxCell id="6mQwVuw__EwqTpGxD2V3-176" value="" style="shape=note2;size=25;childLayout=stackLayout;horizontalStack=0;resizeParent=1;resizeParentMax=0;resizeLast=0;collapsible=0;marginBottom=0;html=1;container=1;" vertex="1" parent="1">
          <mxGeometry x="816" y="1783" width="150" height="40" as="geometry" />
        </mxCell>
        <mxCell id="6mQwVuw__EwqTpGxD2V3-177" value="如果没有实现EL3，&lt;div&gt;就从tee获取初始地址&lt;/div&gt;" style="text;html=1;strokeColor=none;fillColor=none;align=left;verticalAlign=middle;spacingLeft=4;spacingRight=4;overflow=hidden;rotatable=0;points=[[0,0.5],[1,0.5]];portConstraint=eastwest;whiteSpace=wrap;" vertex="1" parent="6mQwVuw__EwqTpGxD2V3-176">
          <mxGeometry width="150" height="40" as="geometry" />
        </mxCell>
        <mxCell id="6mQwVuw__EwqTpGxD2V3-178" value="" style="shape=note2;size=25;childLayout=stackLayout;horizontalStack=0;resizeParent=1;resizeParentMax=0;resizeLast=0;collapsible=0;marginBottom=0;html=1;container=1;" vertex="1" parent="1">
          <mxGeometry x="866" y="1714" width="240" height="40" as="geometry" />
        </mxCell>
        <mxCell id="6mQwVuw__EwqTpGxD2V3-179" value="把lk从ROM中指定位置load到DRAM中" style="text;html=1;strokeColor=none;fillColor=none;align=left;verticalAlign=middle;spacingLeft=4;spacingRight=4;overflow=hidden;rotatable=0;points=[[0,0.5],[1,0.5]];portConstraint=eastwest;whiteSpace=wrap;" vertex="1" parent="6mQwVuw__EwqTpGxD2V3-178">
          <mxGeometry width="240" height="40" as="geometry" />
        </mxCell>
        <mxCell id="6mQwVuw__EwqTpGxD2V3-180" value="" style="endArrow=none;dashed=1;html=1;dashPattern=1 3;strokeWidth=2;rounded=0;fontSize=12;startSize=8;endSize=8;curved=1;entryX=-0.013;entryY=0.715;entryDx=0;entryDy=0;entryPerimeter=0;" edge="1" parent="1" target="6mQwVuw__EwqTpGxD2V3-179">
          <mxGeometry width="50" height="50" relative="1" as="geometry">
            <mxPoint x="636" y="1743" as="sourcePoint" />
            <mxPoint x="876" y="1722" as="targetPoint" />
          </mxGeometry>
        </mxCell>
        <mxCell id="6mQwVuw__EwqTpGxD2V3-181" value="" style="shape=note2;size=25;childLayout=stackLayout;horizontalStack=0;resizeParent=1;resizeParentMax=0;resizeLast=0;collapsible=0;marginBottom=0;html=1;container=1;" vertex="1" parent="1">
          <mxGeometry x="566" y="1967" width="320" height="50" as="geometry" />
        </mxCell>
        <mxCell id="6mQwVuw__EwqTpGxD2V3-182" value="跳转到lk在DRAM中的地址0x81E00000开始执行，&lt;div&gt;（若&lt;span style=&quot;background-color: initial;&quot;&gt;平台有实现EL3(atf)，则先跳转到EL3，再跳到lk，preloader运行在EL3，lk运行在EL1）&lt;/span&gt;&lt;/div&gt;" style="text;html=1;strokeColor=none;fillColor=none;align=left;verticalAlign=middle;spacingLeft=4;spacingRight=4;overflow=hidden;rotatable=0;points=[[0,0.5],[1,0.5]];portConstraint=eastwest;whiteSpace=wrap;" vertex="1" parent="6mQwVuw__EwqTpGxD2V3-181">
          <mxGeometry width="320" height="50" as="geometry" />
        </mxCell>
        <mxCell id="6mQwVuw__EwqTpGxD2V3-183" value="" style="endArrow=none;dashed=1;html=1;dashPattern=1 3;strokeWidth=2;rounded=0;fontSize=12;startSize=8;endSize=8;curved=1;entryX=-0.003;entryY=0.594;entryDx=0;entryDy=0;entryPerimeter=0;" edge="1" parent="1" target="6mQwVuw__EwqTpGxD2V3-182">
          <mxGeometry width="50" height="50" relative="1" as="geometry">
            <mxPoint x="332" y="1996" as="sourcePoint" />
            <mxPoint x="572" y="1975" as="targetPoint" />
          </mxGeometry>
        </mxCell>
        <mxCell id="6mQwVuw__EwqTpGxD2V3-184" value="" style="endArrow=none;dashed=1;html=1;dashPattern=1 3;strokeWidth=2;rounded=0;fontSize=12;startSize=8;endSize=8;curved=1;entryX=-0.013;entryY=0.715;entryDx=0;entryDy=0;entryPerimeter=0;" edge="1" parent="1" target="6mQwVuw__EwqTpGxD2V3-186">
          <mxGeometry width="50" height="50" relative="1" as="geometry">
            <mxPoint x="333" y="2066" as="sourcePoint" />
            <mxPoint x="498" y="2055" as="targetPoint" />
          </mxGeometry>
        </mxCell>
        <mxCell id="6mQwVuw__EwqTpGxD2V3-185" value="" style="shape=note2;size=25;childLayout=stackLayout;horizontalStack=0;resizeParent=1;resizeParentMax=0;resizeLast=0;collapsible=0;marginBottom=0;html=1;container=1;" vertex="1" parent="1">
          <mxGeometry x="492" y="2037" width="190" height="40" as="geometry" />
        </mxCell>
        <mxCell id="6mQwVuw__EwqTpGxD2V3-186" value="&lt;div&gt;&lt;span style=&quot;background-color: initial;&quot;&gt;启动失败就输出log信息，进入while(1)&lt;/span&gt;&lt;/div&gt;" style="text;html=1;strokeColor=none;fillColor=none;align=left;verticalAlign=middle;spacingLeft=4;spacingRight=4;overflow=hidden;rotatable=0;points=[[0,0.5],[1,0.5]];portConstraint=eastwest;whiteSpace=wrap;" vertex="1" parent="6mQwVuw__EwqTpGxD2V3-185">
          <mxGeometry width="190" height="40" as="geometry" />
        </mxCell>
        <mxCell id="6mQwVuw__EwqTpGxD2V3-189" value="" style="html=1;points=[[0,0,0,0,5],[0,1,0,0,-5],[1,0,0,0,5],[1,1,0,0,-5]];perimeter=orthogonalPerimeter;outlineConnect=0;targetShapes=umlLifeline;portConstraint=eastwest;newEdgeStyle={&quot;curved&quot;:0,&quot;rounded&quot;:0};" vertex="1" parent="1">
          <mxGeometry x="642" y="1400" width="10" height="21" as="geometry" />
        </mxCell>
        <mxCell id="6mQwVuw__EwqTpGxD2V3-190" value="read_gpt" style="html=1;align=left;spacingLeft=2;endArrow=block;rounded=0;edgeStyle=orthogonalEdgeStyle;curved=0;rounded=0;fontSize=12;startSize=8;endSize=8;" edge="1" parent="1" target="6mQwVuw__EwqTpGxD2V3-189">
          <mxGeometry relative="1" as="geometry">
            <mxPoint x="647" y="1391" as="sourcePoint" />
            <Array as="points">
              <mxPoint x="672" y="1391" />
              <mxPoint x="672" y="1410" />
            </Array>
          </mxGeometry>
        </mxCell>
        <mxCell id="6mQwVuw__EwqTpGxD2V3-191" value="part_init" style="text;align=center;fontStyle=1;verticalAlign=middle;spacingLeft=3;spacingRight=3;strokeColor=none;rotatable=0;points=[[0,0.5],[1,0.5]];portConstraint=eastwest;html=1;" vertex="1" parent="1">
          <mxGeometry x="633" y="1359" width="80" height="26" as="geometry" />
        </mxCell>
        <mxCell id="6mQwVuw__EwqTpGxD2V3-102" value="" style="endArrow=none;dashed=1;html=1;dashPattern=1 3;strokeWidth=2;rounded=0;fontSize=12;startSize=8;endSize=8;curved=1;entryX=0;entryY=0.5;entryDx=0;entryDy=0;" edge="1" parent="1" source="6mQwVuw__EwqTpGxD2V3-48" target="6mQwVuw__EwqTpGxD2V3-53">
          <mxGeometry width="50" height="50" relative="1" as="geometry">
            <mxPoint x="420" y="600" as="sourcePoint" />
            <mxPoint x="509.4999999999998" y="600" as="targetPoint" />
          </mxGeometry>
        </mxCell>
      </root>
    </mxGraphModel>
  </diagram>
</mxfile>
